<?xml version="1.0" encoding="UTF-8"?>
<svg width="189.35pt" height="191.19pt" version="1.0" viewBox="0 0 189.35 191.19" xmlns="http://www.w3.org/2000/svg" xmlns:cc="http://creativecommons.org/ns#" xmlns:dc="http://purl.org/dc/elements/1.1/" xmlns:rdf="http://www.w3.org/1999/02/22-rdf-syntax-ns#">
 <metadata>Created by potrace 1.15, written by Peter Selinger 2001-2017
  <rdf:RDF>
   <cc:Work rdf:about="">
    <dc:format>image/svg+xml</dc:format>
    <dc:type rdf:resource="http://purl.org/dc/dcmitype/StillImage"/>
    <dc:title/>
   </cc:Work>
  </rdf:RDF>
 </metadata>
 <g fill-rule="evenodd">
  <rect transform="rotate(-90)" x="-191.19" width="25.473" height="48.75" fill="#286ac7"/>
  <rect transform="rotate(-90)" x="-191.19" y="55.125" width="25.473" height="48.75" fill="#ffc300"/>
  <rect transform="rotate(-90)" x="-191.19" y="110.25" width="25.473" height="48.75" fill="#eb617f"/>
 </g>
 <path d="m5.1444 159.49c0-0.6064 0.675-1.3169 1.5-1.5787 1.4527-0.4611 1.5-1.1348 1.5-21.375s-0.047-20.914-1.5-21.375c-0.825-0.2618-1.5-0.9723-1.5-1.5787 0-0.9056 1.2284-1.0641 6.8768-0.8869 4.5579 0.1429 6.9785 0.5224 7.1783 1.1254 0.1658 0.5004-0.5663 1.1277-1.6268 1.3938l-1.9283 0.484v41.809l1.9077 0.4788c4.0089 1.0062 1.3018 2.1762-5.5309 2.3904-5.6484 0.1772-6.8768 0.019-6.8768-0.8869zm22.25 0.5463c-0.275-0.275-0.5-7.846-0.5-16.824 0-15.666-0.061-16.344-1.5-16.8-2.8733-0.9119-1.4712-1.875 2.7298-1.875 2.8208 0 4.5072 0.3636 5.0625 1.0916 0.7228 0.9474 1.3773 0.9011 4.9577-0.3506 5.2437-1.8331 10.024-1.8445 14.013-0.034 5.3121 2.4118 5.8239 4.1595 6.107 20.855l0.2449 14.438h-7.6147v-26.365l-2.2918-2.2918c-2.103-2.103-2.5941-2.256-5.9597-1.8574-2.0173 0.2389-4.6985 0.9673-5.9582 1.6188l-2.2903 1.1843v27.712h-3.25c-1.7875 0-3.475-0.225-3.75-0.5zm41.304-0.7023c-3.3212-1.0211-3.5394-1.24-3.1249-3.1352 0.8717-3.9854 0.8177-3.9413 3.475-2.8344 6.8986 2.8738 14.278 1.8193 15.283-2.1839 0.7022-2.7978-1.2899-4.634-6.911-6.3702-2.5998-0.803-5.7206-1.9739-6.9353-2.602-7.1086-3.676-7.1792-13.206-0.1239-16.722 3.0632-1.5265 14.05-1.7631 17.386-0.3743 1.7626 0.7337 1.9192 1.0946 1.4368 3.3116-0.3437 1.5795-0.9245 2.3983-1.5905 2.2423-0.5771-0.1352-3.3193-0.4361-6.0938-0.6687-5.9023-0.4948-8.8556 0.8106-8.8556 3.9145 0 2.3305 1.8635 3.4978 8.9264 5.5916 7.4943 2.2218 9.8236 4.5366 9.8236 9.763 0 5.1484-1.6287 8.061-5.4872 9.8129-3.8294 1.7386-11.99 1.8596-17.208 0.2552zm35.82-0.2082c-1.65-0.7577-3.5778-2.0283-4.2839-2.8235-4.9108-5.5304-5.4156-19.927-0.9361-26.696 2.3145-3.4975 6.841-5.7804 11.508-5.8037 9.7297-0.049 15.071 5.5818 15.083 15.901v3.5424l-11.062 0.2076-11.062 0.2075 0.1125 2.4546c0.1544 3.3723 2.1077 6.0765 5.3834 7.4532 2.351 0.9881 3.6158 1.0265 8.6414 0.2622 3.2381-0.4925 6.0121-0.7706 6.1646-0.6181s0.372 1.4298 0.4877 2.8383c0.2054 2.5005 0.1218 2.5821-3.5396 3.451-5.8259 1.3824-13.027 1.218-16.5-0.3767zm14.625-23.022c0-1.1361-0.9036-2.8362-2.1923-4.125-2.9583-2.9583-8.1922-3.126-10.967-0.3514-1.0125 1.0125-1.8409 2.3349-1.8409 2.9387 0 0.6037-0.2049 1.6316-0.4552 2.2841-0.3975 1.0358 0.554 1.1863 7.5 1.1863h7.9552zm19.875 23.022c-1.65-0.7577-3.5778-2.0283-4.2839-2.8235-4.9889-5.6183-5.5811-19.918-1.104-26.657 3.5272-5.3096 12.441-7.4088 18.888-4.4483 5.3248 2.4452 7.7811 6.8716 7.8421 14.132l0.033 3.9174-11.062 0.2076-11.062 0.2075 0.09 2.8566c0.1153 3.6825 3.1427 6.9857 6.9994 7.6373 1.5289 0.2583 5.0496 0.074 7.8238-0.4087 2.7743-0.4832 5.1632-0.7562 5.3087-0.6068s0.3802 1.445 0.5216 2.8791c0.253 2.5667 0.1983 2.6214-3.493 3.4905-5.8423 1.3757-13.033 1.2085-16.5-0.3835zm14.625-23.022c0-1.1361-0.9036-2.8362-2.1923-4.125-1.7175-1.7175-2.8653-2.1923-5.2993-2.1923-1.7089 0-3.7884 0.3647-4.6212 0.8104-1.3964 0.7473-3.6372 4.8538-3.6372 6.6655 0 0.483 2.9616 0.7741 7.875 0.7741h7.875zm-103.5-66.317c0-22.275-0.1855-40.5-0.4122-40.5-2.2628 0-13.33 7.6806-19.379 13.448-2.8414 2.7096-4.8074 4.2515-4.3688 3.4265 1.9775-3.72 11.476-11.545 19.098-15.732l5.0625-2.7812v-27.612h110.25v110.25h-110.25zm55.5 4.2367 28.125-12.261 1.0666 1.9498c1.664 3.0417 3.8007 11.903 4.313 17.887 0.3535 4.1287 0.7365 5.4375 1.5915 5.4375 0.9509 0 1.0536-1.02 0.6605-6.5625-0.5134-7.239-1.9638-13.371-4.4804-18.942l-1.6512-3.6552-27.597 12.045c-15.179 6.6246-27.758 11.884-27.955 11.687-0.2668-0.2668 12.7-49.792 15.096-57.66 0.3003-0.9858-0.8116-1.4608-5.9373-2.5364-13.388-2.8095-37.981 0.093-37.981 4.4833v1.6266l5.0625-1.6893c9.9613-3.3239 21.316-3.9189 31.904-1.6718 2.8042 0.5951 3.5128 1.0349 3.2329 2.0063-0.1971 0.6843-3.7766 14.069-7.9543 29.744-4.1778 15.675-7.7753 29.124-7.9945 29.886-0.5279 1.8365-2.2239 2.4912 30.499-11.775zm48.503-6.174c1.3649-3.5568-6.4882-23.273-12.784-32.095-10.522-14.745-27.877-25.313-46.219-28.143-3.0937-0.4774-6.5761-1.023-7.7385-1.2125-1.8208-0.2967-2.0805-0.1204-1.875 1.2724 0.1971 1.336 1.0712 1.786 5.035 2.5915 15.28 3.1055 26.953 9.2657 38.318 20.221 10.165 9.7995 17.904 22.197 21.374 34.241 1.2367 4.2921 2.9215 5.646 3.8888 3.1252z" fill="#2d363f" stroke-width=".75"/>
 <g fill-rule="evenodd">
  <rect transform="scale(-1)" x="-189.35" y="-191.14" width="24.015" height="25.473" fill="#b0aeae"/>
  <rect transform="scale(-1)" x="-189.35" y="-159.29" width="24.015" height="48.75" fill="#0aacab"/>
  <rect transform="scale(-1)" x="-189.35" y="-104.17" width="24.015" height="48.75" fill="#b06293"/>
  <rect transform="scale(-1)" x="-189.26" y="-48.75" width="24.015" height="48.75" fill="#4bb375"/>
 </g>
</svg>
